<?xml version="1.0" standalone="no"?>
<!DOCTYPE svg PUBLIC "-//W3C//DTD SVG 1.1//EN" "http://www.w3.org/Graphics/SVG/1.1/DTD/svg11.dtd"><svg t="1762861572149"
  class="icon" viewBox="0 0 1049 1024" version="1.1" xmlns="http://www.w3.org/2000/svg" p-id="6334"
  xmlns:xlink="http://www.w3.org/1999/xlink" width="14.341796875" height="14">
  <defs>
    <style>
      @import url('../styles/svg-animation/breeze.css');
    </style>
  </defs>
  <path class="wind-line"
    d="M130.2016 677.4272c-26.4448 0-48.2048 19.968-48.2048 45.2608 0 25.2672 21.76 45.2352 48.2048 45.2352 0 0 133.7344-23.5008 220.2368-23.5008 134.0672 0 206.336 45.9008 340.5824 47.0272 71.3472 0.5888 170.0352-11.0336 223.4112-18.176a43.904 43.904 0 0 0 37.9648-43.7248c0-27.392-24.3712-48.4864-51.5584-44.9792-55.3472 7.1168-144.1536 16.9216-209.8176 16.384-134.272-1.152-207.6928-47.0272-340.5824-47.0272-86.5024 0-220.2368 23.5008-220.2368 23.5008z"
    fill="#95B8FF" p-id="6335"></path>
  <path class="wind-line"
    d="M730.8288 323.0464c-24.6784 0-46.4128 8.8064-62.2848 22.912a90.0864 90.0864 0 0 0-26.4448 39.3728 44.8256 44.8256 0 0 1-57.6 28.2112 44.8256 44.8256 0 0 1-28.2112-57.6 176.2304 176.2304 0 0 1 53.4784-78.1568c33.5104-28.8 71.68-45.2608 116.3776-45.2608 101.0688 0 190.4128 79.9488 190.4128 181.0176 0 101.0944-84.0448 181.0176-185.1392 181.0176-134.2464-1.1264-211.072-47.0272-345.1392-47.0272-86.5024 0-220.2368 23.5008-220.2368 23.5008-26.4448 0-48.1792-19.968-48.1792-45.2608 0-25.2672 21.7344-45.2608 48.1792-45.2608 0 0 133.7344-23.5008 220.2368-23.5008 132.8896 0 210.8928 46.4896 345.1392 47.616 52.8896 0 94.0288-41.728 94.0288-91.0848s-41.1392-90.496-94.6176-90.496z"
    fill="#95B8FF"></path>
</svg>