<?xml version="1.0" standalone="no"?>
<!DOCTYPE svg PUBLIC "-//W3C//DTD SVG 1.1//EN" "http://www.w3.org/Graphics/SVG/1.1/DTD/svg11.dtd"><svg t="1762861620587"
  class="icon" viewBox="0 0 1049 1024" version="1.1" xmlns="http://www.w3.org/2000/svg" p-id="7359"
  xmlns:xlink="http://www.w3.org/1999/xlink" width="14.341796875" height="14">
  <defs>
    <style>
      @import url('../styles/svg-animation/strong-breeze.css');
    </style>
  </defs>
  <path class="strong-wind-line"
    d="M121.088 550.656c-21.504 0-39.0912 17.0496-39.0912 38.2464 0 21.1712 17.5616 38.1952 39.0912 38.1952H619.52c53.1456 0 94.848 43.7504 94.848 95.7696 0 52.0448-41.2672 96.256-94.4128 96.256-42.5984 0-77.568-27.7504-90.0096-65.8688-7.04-19.7888-28.1088-29.9264-47.0016-23.0144-18.432 6.912-28.1088 28.0832-22.4 47.872C483.2768 846.336 546.56 896 619.52 896c91.776 0 168.192-76.4416 168.192-172.672a175.488 175.488 0 0 0-29.1072-96.2304c102.8864 0 193.792-76.416 193.792-172.6464 0-96.256-76.416-172.672-168.192-172.672-72.96 0-136.2432 49.664-158.976 117.8624-5.7088 19.8144 3.968 40.9856 22.4 47.8976 18.8928 6.912 39.9616-3.2256 47.0016-23.04 12.4416-38.0928 47.4112-65.8176 90.0096-65.8176 53.1456 0 94.4128 43.7248 94.4128 96.2304 0 52.0192-57.8816 95.744-120.448 95.744H121.088z"
    fill="#95B8FF" p-id="7360"></path>
  <path class="strong-wind-line"
    d="M219.4432 397.3632c-21.504 0-39.0656 17.024-39.0656 38.1952 0 21.1968 17.5616 38.2208 39.0656 38.2208h236.288c92.2112 0 168.192-76.8768 168.192-173.1072 0-96.256-76.416-172.672-168.192-172.672a165.9392 165.9392 0 0 0-110.6688 42.8288 178.9696 178.9696 0 0 0-48.3072 75.0336c0 0.4608-0.4608 0.9216-0.4608 1.3824-6.144 20.2752 4.4032 41.9072 23.7312 48.3584 19.328 6.4512 39.936-4.608 46.1056-24.8832a95.4624 95.4624 0 0 1 26.7776-41.4208 93.952 93.952 0 0 1 63.232-24.3968c53.5808 0 94.4384 44.6464 94.4384 96.6912 0 52.0192-41.728 95.744-94.8736 95.744H219.4688z"
    fill="#95B8FF"></path>
</svg>